<svg width="256" height="256" viewBox="0 0 256 256" fill="none" xmlns="http://www.w3.org/2000/svg">
<rect width="256" height="256" fill="white"/>
<path d="M81.5213 189.726C92.9535 200.245 108.601 205.505 128.465 205.505C148.471 205.505 164.119 200.316 175.408 189.94C186.698 179.421 192.342 164.496 192.342 145.164V50.4954H163.404H93.5252H64.5874V145.164C64.5874 164.211 70.232 179.066 81.5213 189.726Z" fill="#1A49BA"/>
<path d="M128.464 179.67C115.222 179.67 104.79 176.164 97.1687 169.151C89.6425 162.044 85.8794 152.141 85.8794 139.443V76.3303H105.171V139.585C105.171 147.261 107.172 153.089 111.173 157.069C115.174 161.049 120.938 163.039 128.464 163.039C135.991 163.039 141.754 161.049 145.756 157.069C149.757 153.089 151.757 147.261 151.757 139.585V76.3303H171.049V139.443C171.049 152.331 167.286 162.281 159.76 169.293C152.234 176.211 141.802 179.67 128.464 179.67Z" fill="white"/>
</svg>
