<svg width="493" height="173" viewBox="0 0 493 173" fill="none" xmlns="http://www.w3.org/2000/svg">
<rect width="493" height="173" fill="white"/>
<path d="M71.4 116.28C63.6667 116.28 57.6667 114.547 53.4 111.08C49.1867 107.613 47.0533 102.653 47 96.2H57.64C57.6933 100.253 58.8933 103.16 61.24 104.92C63.64 106.68 67.1333 107.56 71.72 107.56C75.4533 107.56 78.3067 106.867 80.28 105.48C82.2533 104.04 83.24 101.987 83.24 99.32C83.24 97.08 82.3867 95.3733 80.68 94.2C79.0267 93.0267 75.9867 91.9867 71.56 91.08L66.76 90.12C54.5467 87.8267 48.44 82.0667 48.44 72.84C48.44 67.9333 50.3067 64.04 54.04 61.16C57.7733 58.2267 62.9467 56.76 69.56 56.76C77.08 56.76 82.76 58.36 86.6 61.56C90.4933 64.76 92.5467 69.24 92.76 75H82.28C82.0667 71.7467 80.9733 69.3467 79 67.8C77.08 66.2533 73.9867 65.48 69.72 65.48C66.4133 65.48 63.88 66.0933 62.12 67.32C60.36 68.5467 59.48 70.28 59.48 72.52C59.48 74.8133 60.28 76.5733 61.88 77.8C63.5333 79.0267 66.44 80.0667 70.6 80.92L75.56 81.88C82.2267 83.2133 87.0267 85.2133 89.96 87.88C92.9467 90.4933 94.44 94.12 94.44 98.76C94.44 104.307 92.4133 108.627 88.36 111.72C84.3067 114.76 78.6533 116.28 71.4 116.28Z" fill="#000E17"/>
<path d="M136.578 115H125.058L113.058 95.8L106.818 102.04V115H96.8975V58.04H106.818V90.84L123.618 73.72H135.618L120.018 89.32L136.578 115Z" fill="#000E17"/>
<path d="M146.901 68.36H136.981V58.92H146.901V68.36ZM146.981 115H136.901V73.72H146.981V115Z" fill="#000E17"/>
<path d="M161.984 115H151.904V58.04H161.984V115Z" fill="#000E17"/>
<path d="M176.987 115H166.907V58.04H176.987V115Z" fill="#000E17"/>
<path d="M198.15 116.12C186.097 116.12 179.803 111.373 179.27 101.88H189.11C189.377 104.44 190.203 106.253 191.59 107.32C193.03 108.387 195.27 108.92 198.31 108.92C203.75 108.92 206.47 107.267 206.47 103.96C206.47 102.467 205.883 101.32 204.71 100.52C203.537 99.72 201.43 99.0533 198.39 98.52L193.67 97.72C184.657 96.2267 180.15 92.0667 180.15 85.24C180.15 81.3467 181.643 78.3067 184.63 76.12C187.617 73.88 191.83 72.76 197.27 72.76C209.057 72.76 215.137 77.4267 215.51 86.76H205.99C205.883 84.3067 205.11 82.5733 203.67 81.56C202.23 80.4933 200.097 79.96 197.27 79.96C192.47 79.96 190.07 81.56 190.07 84.76C190.07 86.1467 190.603 87.24 191.67 88.04C192.737 88.7867 194.497 89.3733 196.95 89.8L202.15 90.6C207.163 91.5067 210.79 92.9467 213.03 94.92C215.323 96.8933 216.47 99.64 216.47 103.16C216.47 107.32 214.87 110.52 211.67 112.76C208.47 115 203.963 116.12 198.15 116.12Z" fill="#000E17"/>
<rect x="263.39" y="43" width="182.44" height="87.24" fill="#1A49BA"/>
<path d="M237.48 121.36C243.88 127.28 252.64 130.24 263.76 130.24C274.96 130.24 283.72 127.32 290.04 121.48C296.36 115.56 299.52 107.16 299.52 96.28V43H283.32H244.2H228V96.28C228 107 231.16 115.36 237.48 121.36Z" fill="#1A49BA"/>
<path d="M263.76 115.7C256.347 115.7 250.507 113.727 246.24 109.78C242.027 105.78 239.92 100.207 239.92 93.06V57.54H250.72V93.14C250.72 97.46 251.84 100.74 254.08 102.98C256.32 105.22 259.547 106.34 263.76 106.34C267.973 106.34 271.2 105.22 273.44 102.98C275.68 100.74 276.8 97.46 276.8 93.14V57.54H287.6V93.06C287.6 100.313 285.493 105.913 281.28 109.86C277.067 113.753 271.227 115.7 263.76 115.7Z" fill="white"/>
<path d="M392.666 94.4401C392.666 100.947 390.746 106.173 386.906 110.12C383.066 114.067 377.999 116.04 371.706 116.04C365.412 116.04 360.346 114.067 356.506 110.12C352.612 106.227 350.666 101 350.666 94.4401C350.666 87.8801 352.612 82.6534 356.506 78.7601C360.346 74.8134 365.412 72.8401 371.706 72.8401C377.999 72.8401 383.066 74.7868 386.906 78.6801C390.746 82.5734 392.666 87.8268 392.666 94.4401ZM363.786 104.28C365.706 106.573 368.346 107.72 371.706 107.72C375.066 107.72 377.679 106.573 379.546 104.28C381.466 101.933 382.426 98.6534 382.426 94.4401C382.426 90.2268 381.466 86.9734 379.546 84.6801C377.679 82.3334 375.066 81.1601 371.706 81.1601C368.346 81.1601 365.706 82.3068 363.786 84.6001C361.919 86.8934 360.986 90.1734 360.986 94.4401C360.986 98.7068 361.919 101.987 363.786 104.28Z" fill="white"/>
<path d="M317.03 72.8401C321.51 72.8401 325.03 74.1468 327.59 76.7601C330.203 79.3201 331.51 82.9734 331.51 87.7201V115.08H321.43V89.4001C321.43 84.1734 318.843 81.5601 313.67 81.5601C311.11 81.5601 308.923 82.4934 307.11 84.3601C305.35 86.1734 304.47 88.7068 304.47 91.9601V115.08H294.39V73.8001H304.15V79.7201C307.297 75.1334 311.59 72.8401 317.03 72.8401Z" fill="white"/>
<path d="M346.582 115.08H336.502V73.8H346.582V115.08Z" fill="white"/>
<path d="M418.43 72.8401C422.91 72.8401 426.43 74.1468 428.99 76.7601C431.603 79.3201 432.91 82.9734 432.91 87.7201V115.08H422.83V89.4001C422.83 84.1734 420.243 81.5601 415.07 81.5601C412.51 81.5601 410.323 82.4934 408.51 84.3601C406.75 86.1734 405.87 88.7068 405.87 91.9601V115.08H395.79V73.8001H405.55V79.7201C408.697 75.1334 412.99 72.8401 418.43 72.8401Z" fill="white"/>
<path d="M336.58 59H346.5V68.44H339.58C337.923 68.44 336.58 67.0969 336.58 65.44V59Z" fill="white"/>
</svg>
